<svg class="icon" style="width: 1em; height: 1em;vertical-align: middle;fill: currentColor;overflow: hidden;" viewBox="0 0 1024 1024" version="1.1" xmlns="http://www.w3.org/2000/svg" p-id="1452"><path d="M999.296 245.9264 486.5536 758.6688l-93.2224-93.2224L906.0736 152.704 999.296 245.9264zM1008.6144 236.608c20.5056-20.5056 20.5056-54.0672 0-74.5856l-18.6496-18.6496c-20.5056-20.5056-54.0672-20.5056-74.5856 0L1008.6144 236.608zM384 674.7776 384 768l93.2224 0L384 674.7776zM844.8 487.424 844.8 857.6c0 28.2368-22.9632 51.2-51.2 51.2L102.4 908.8c-28.2368 0-51.2-22.9632-51.2-51.2L51.2 166.4c0-28.2368 22.9632-51.2 51.2-51.2l691.2 0c16.7168 0 31.4368 8.1664 40.7936 20.5952l36.3776-36.3776C851.9552 77.7856 824.3328 64 793.6 64L102.4 64c-56.32 0-102.4 46.08-102.4 102.4l0 691.2c0 56.32 46.08 102.4 102.4 102.4l691.2 0c56.32 0 102.4-46.08 102.4-102.4L896 436.224 844.8 487.424z" p-id="1453"></path></svg>